<?xml version="1.0" encoding="UTF-8" standalone="no"?>
<!-- Created with Inkscape (http://www.inkscape.org/) -->

<svg
   version="1.1"
   id="svg2"
   xml:space="preserve"
   width="1195.7091"
   height="667.53625"
   viewBox="0 0 1195.7091 667.53625"
   sodipodi:docname="card-splash.svg"
   inkscape:version="1.1 (c4e8f9ed74, 2021-05-24)"
   xmlns:inkscape="http://www.inkscape.org/namespaces/inkscape"
   xmlns:sodipodi="http://sodipodi.sourceforge.net/DTD/sodipodi-0.dtd"
   xmlns:xlink="http://www.w3.org/1999/xlink"
   xmlns="http://www.w3.org/2000/svg"
   xmlns:svg="http://www.w3.org/2000/svg"><defs
     id="defs6"><linearGradient
       inkscape:collect="always"
       id="linearGradient4120"><stop
         style="stop-color:#00ff00;stop-opacity:1;"
         offset="0"
         id="stop4116" /><stop
         style="stop-color:#33ffff;stop-opacity:1"
         offset="1"
         id="stop4118" /></linearGradient><linearGradient
       id="linearGradient2108"
       inkscape:swatch="solid"><stop
         style="stop-color:#00ff00;stop-opacity:1;"
         offset="0"
         id="stop2106" /></linearGradient><clipPath
       clipPathUnits="userSpaceOnUse"
       id="clipPath16"><path
         d="M 0,500 H 500 V 0 H 0 Z"
         id="path14" /></clipPath><clipPath
       clipPathUnits="userSpaceOnUse"
       id="clipPath28"><path
         d="M 72.5421,434.319 H 432.92 V 101.522 H 72.5421 Z"
         id="path26" /></clipPath><clipPath
       clipPathUnits="userSpaceOnUse"
       id="clipPath44"><path
         d="M 0,500 H 500 V 0 H 0 Z"
         id="path42" /></clipPath><clipPath
       clipPathUnits="userSpaceOnUse"
       id="clipPath68"><path
         d="M 0,500 H 500 V 0 H 0 Z"
         id="path66" /></clipPath><clipPath
       clipPathUnits="userSpaceOnUse"
       id="clipPath80"><path
         d="m 200.82,108.776 h 99.872 V 65.242 H 200.82 Z"
         id="path78" /></clipPath><clipPath
       clipPathUnits="userSpaceOnUse"
       id="clipPath96"><path
         d="M 0,500 H 500 V 0 H 0 Z"
         id="path94" /></clipPath><clipPath
       clipPathUnits="userSpaceOnUse"
       id="clipPath148"><path
         d="m 278.919,324.5 c 0,0 -10.5,-19.666 -15.667,-34 v 0 c -5.166,-14.333 -13.166,-40 -16.167,-50.5 v 0 c -3,-10.5 -3.5,-24.667 -2.666,-25.667 v 0 c 0.834,-1 20.667,3.667 27.333,6.167 v 0 c 6.667,2.5 7.834,3.5 9,4.833 v 0 c 1.167,1.334 -4.166,24 -3.166,29.001 v 0 c 1,4.999 14.166,36.166 17.333,45.499 v 0 c 3.167,9.333 4.833,17.501 2.667,18.167 v 0 c -2.138,0.657 -14.813,6.503 -18.518,6.504 v 0 c -0.052,0 -0.101,-0.001 -0.149,-0.004"
         id="path146" /></clipPath><clipPath
       clipPathUnits="userSpaceOnUse"
       id="clipPath156"><path
         d="m 244.058,294.695 h 45.76 v -80.5 h -45.76 z"
         id="path154" /></clipPath><clipPath
       clipPathUnits="userSpaceOnUse"
       id="clipPath176"><path
         d="M 0,500 H 500 V 0 H 0 Z"
         id="path174" /></clipPath><clipPath
       clipPathUnits="userSpaceOnUse"
       id="clipPath192"><path
         d="m 227.752,326.667 c -5.5,-2.333 -22.5,-0.834 -25.833,-0.834 v 0 c -3.334,0 -15.166,-12.167 -5.5,-15.5 v 0 c 9.667,-3.333 32.5,-6.166 32.834,-8.166 v 0 c 0.332,-2.001 -1,-11.833 -1.667,-20.833 v 0 c -0.667,-9 -0.834,-23.668 -0.834,-23.668 v 0 c 0,0 1.667,5.5 5.001,12.167 v 0 c 3.332,6.667 11.666,20.834 17.499,33.833 v 0 c 5.834,13.001 11.667,22.834 11.667,22.834 v 0 c 0,0 -16.167,3.5 -21.5,3.5 v 0 c -5.334,0 -6.167,-1 -11.667,-3.333"
         id="path190" /></clipPath><clipPath
       clipPathUnits="userSpaceOnUse"
       id="clipPath200"><path
         d="m 192.697,323.096 h 55.947 v -35.745 h -55.947 z"
         id="path198" /></clipPath><clipPath
       clipPathUnits="userSpaceOnUse"
       id="clipPath216"><path
         d="M 0,500 H 500 V 0 H 0 Z"
         id="path214" /></clipPath><clipPath
       clipPathUnits="userSpaceOnUse"
       id="clipPath308"><path
         d="m 263.242,360.418 c -0.038,-0.143 -0.929,-3.524 -0.564,-5.305 v 0 c 0.401,-1.963 3.109,-3.727 5.702,-3.727 v 0 c 0.02,0 0.039,0 0.058,0 v 0 c 2.195,0.023 4.696,1.981 5.5,5.202 v 0 c 0.356,0.133 0.8,0.24 1.231,0.162 v 0 c 0.504,-0.092 0.976,-0.684 1.306,-1.201 v 0 c -0.221,-1.164 -0.429,-2.724 -0.219,-3.753 v 0 c 0.401,-1.962 3.109,-3.727 5.703,-3.727 v 0 c 0.018,0 0.038,10e-4 0.058,10e-4 v 0 c 1.732,0.018 3.655,1.242 4.784,3.341 v 0 l 4.451,-5.827 1.084,0.916 -4.664,7.567 c 0.033,0.211 0.062,0.424 0.079,0.643 v 0 c 0.02,0.248 -0.145,0.473 -0.389,0.528 v 0 l -9.949,2.223 c -0.082,0.018 -0.16,0.01 -0.235,-0.009 v 0 l -3.138,0.946 c -0.067,0.075 -0.152,0.133 -0.256,0.157 v 0 l -9.95,2.223 c -0.037,0.008 -0.074,0.012 -0.111,0.012 v 0 c -0.221,0 -0.422,-0.148 -0.481,-0.372"
         id="path306" /></clipPath><clipPath
       clipPathUnits="userSpaceOnUse"
       id="clipPath324"><path
         d="M 0,500 H 500 V 0 H 0 Z"
         id="path322" /></clipPath><clipPath
       clipPathUnits="userSpaceOnUse"
       id="clipPath392"><path
         d="m 186.252,323.167 c -3.5,-4.001 -0.667,-12.834 4.667,-12.834 v 0 c 5.333,0 24,-1.5 24,-1.5 v 0 c 0,0 -0.667,5.167 -0.166,9.333 v 0 c 0.499,4.167 2.5,9 2.5,9 v 0 c 0,0 -12.334,0.334 -17.168,0.834 v 0 c -0.64,0.066 -1.291,0.1 -1.949,0.1 v 0 c -4.305,0 -8.847,-1.464 -11.884,-4.933"
         id="path390" /></clipPath><clipPath
       clipPathUnits="userSpaceOnUse"
       id="clipPath400"><path
         d="m 184.923,318.167 h 29.996 v -9.334 h -29.996 z"
         id="path398" /></clipPath><clipPath
       clipPathUnits="userSpaceOnUse"
       id="clipPath416"><path
         d="M 0,500 H 500 V 0 H 0 Z"
         id="path414" /></clipPath><clipPath
       clipPathUnits="userSpaceOnUse"
       id="clipPath432"><path
         d="m 204.984,254.184 c -9.103,-7.003 -14.347,-10.288 -12.894,-12.675 v 0 c 1.452,-2.388 12.421,-11.044 17.687,-13.433 v 0 c 5.267,-2.388 26.809,51.091 26.809,51.091 v 0 c 0,0 -23.693,-18.9 -31.602,-24.983"
         id="path430" /></clipPath><clipPath
       clipPathUnits="userSpaceOnUse"
       id="clipPath440"><path
         d="m 191.85,279.167 h 44.736 V 227.999 H 191.85 Z"
         id="path438" /></clipPath><clipPath
       clipPathUnits="userSpaceOnUse"
       id="clipPath456"><path
         d="M 0,500 H 500 V 0 H 0 Z"
         id="path454" /></clipPath><clipPath
       clipPathUnits="userSpaceOnUse"
       id="clipPath568"><path
         d="m 288.085,305.167 -4.333,-20.667 -16.166,13.834 -10.335,-11.5 c 0,0 11.668,-15.001 20.168,-21.167 v 0 c 8.5,-6.167 15.832,-7.167 17.667,-5.167 v 0 c 1.833,2 10.666,38.666 12.666,45.333 v 0 c 2,6.667 1.167,10 -1.166,10.834 v 0 c -2.334,0.833 -19.834,3.5 -19.834,3.5 v 0 z"
         id="path566" /></clipPath><clipPath
       clipPathUnits="userSpaceOnUse"
       id="clipPath576"><path
         d="m 257.252,316.726 h 51.627 v -57.158 h -51.627 z"
         id="path574" /></clipPath><clipPath
       clipPathUnits="userSpaceOnUse"
       id="clipPath592"><path
         d="M 0,500 H 500 V 0 H 0 Z"
         id="path590" /></clipPath><clipPath
       clipPathUnits="userSpaceOnUse"
       id="clipPath624"><path
         d="M 0,500 H 500 V 0 H 0 Z"
         id="path622" /></clipPath><linearGradient
       inkscape:collect="always"
       xlink:href="#linearGradient4120"
       id="linearGradient8560"
       x1="-332.14133"
       y1="-81.88578"
       x2="28.236094"
       y2="-81.88578"
       gradientUnits="userSpaceOnUse" /><linearGradient
       id="b"
       gradientUnits="userSpaceOnUse"
       x1="-8.0959644"
       x2="466.33603"
       xlink:href="#a"
       y1="136.11006"
       y2="136.11006" /><linearGradient
       id="a"><stop
         stop-opacity="1"
         stop-color="#000000"
         offset="0"
         id="stop2" /><stop
         stop-opacity="1"
         stop-color="#000000"
         offset="0.503"
         id="stop4" /><stop
         stop-opacity="1"
         stop-color="#000000"
         offset="1"
         id="stop6" /></linearGradient><linearGradient
       id="c"
       gradientUnits="userSpaceOnUse"
       x1="-8.0959644"
       x2="466.33603"
       xlink:href="#a"
       y1="344.11005"
       y2="344.11005" /><linearGradient
       id="d"
       gradientUnits="userSpaceOnUse"
       x1="-8.0959644"
       x2="466.33603"
       xlink:href="#a"
       y1="56.118053"
       y2="56.118053" /><linearGradient
       id="e"
       gradientUnits="userSpaceOnUse"
       x1="-8.0959644"
       x2="466.33603"
       xlink:href="#a"
       y1="88.118057"
       y2="88.118057" /><linearGradient
       id="f"
       gradientUnits="userSpaceOnUse"
       x1="-8.0959644"
       x2="466.33603"
       xlink:href="#a"
       y1="72.118057"
       y2="72.118057" /><linearGradient
       id="g"
       gradientUnits="userSpaceOnUse"
       x1="-8.0959644"
       x2="466.33603"
       xlink:href="#a"
       y1="136.11806"
       y2="136.11806" /><linearGradient
       id="h"
       gradientUnits="userSpaceOnUse"
       x1="-8.0959644"
       x2="466.33603"
       xlink:href="#a"
       y1="168.11806"
       y2="168.11806" /><linearGradient
       id="i"
       gradientUnits="userSpaceOnUse"
       x1="-8.0959644"
       x2="466.33603"
       xlink:href="#a"
       y1="152.11806"
       y2="152.11806" /><linearGradient
       id="j"
       gradientUnits="userSpaceOnUse"
       x1="-8.0959644"
       x2="466.33603"
       xlink:href="#a"
       y1="304.11804"
       y2="304.11804" /><linearGradient
       id="k"
       gradientUnits="userSpaceOnUse"
       x1="-8.0959644"
       x2="466.33603"
       xlink:href="#a"
       y1="336.11804"
       y2="336.11804" /><linearGradient
       id="l"
       gradientUnits="userSpaceOnUse"
       x1="-8.0959644"
       x2="466.33603"
       xlink:href="#a"
       y1="320.11804"
       y2="320.11804" /><linearGradient
       id="m"
       gradientUnits="userSpaceOnUse"
       x1="-8.0959644"
       x2="466.33603"
       xlink:href="#a"
       y1="392.11804"
       y2="392.11804" /><linearGradient
       id="n"
       gradientUnits="userSpaceOnUse"
       x1="-8.0959644"
       x2="466.33603"
       xlink:href="#a"
       y1="424.11804"
       y2="424.11804" /><linearGradient
       id="o"
       gradientUnits="userSpaceOnUse"
       x1="-8.0959644"
       x2="466.33603"
       xlink:href="#a"
       y1="408.11804"
       y2="408.11804" /><linearGradient
       id="p"
       gradientUnits="userSpaceOnUse"
       x1="-8.0959644"
       x2="466.33603"
       xlink:href="#a"
       y1="112.11806"
       y2="112.11806" /><linearGradient
       id="q"
       gradientUnits="userSpaceOnUse"
       x1="-8.0959644"
       x2="466.33603"
       xlink:href="#a"
       y1="144.11806"
       y2="144.11806" /><linearGradient
       id="r"
       gradientUnits="userSpaceOnUse"
       x1="-8.0959644"
       x2="466.33603"
       xlink:href="#a"
       y1="128.11806"
       y2="128.11806" /><linearGradient
       id="s"
       gradientUnits="userSpaceOnUse"
       x1="-8.0959644"
       x2="466.33603"
       xlink:href="#a"
       y1="344.11804"
       y2="344.11804" /><linearGradient
       inkscape:collect="always"
       xlink:href="#a"
       id="linearGradient18642"
       gradientUnits="userSpaceOnUse"
       x1="-8.0959644"
       y1="72.118057"
       x2="466.33603"
       y2="72.118057" /><linearGradient
       inkscape:collect="always"
       xlink:href="#a"
       id="linearGradient18644"
       gradientUnits="userSpaceOnUse"
       x1="-8.0959644"
       y1="136.11806"
       x2="466.33603"
       y2="136.11806" /><linearGradient
       inkscape:collect="always"
       xlink:href="#a"
       id="linearGradient18646"
       gradientUnits="userSpaceOnUse"
       x1="-8.0959644"
       y1="152.11806"
       x2="466.33603"
       y2="152.11806" /><linearGradient
       inkscape:collect="always"
       xlink:href="#a"
       id="linearGradient18648"
       gradientUnits="userSpaceOnUse"
       x1="-8.0959644"
       y1="304.11804"
       x2="466.33603"
       y2="304.11804" /><linearGradient
       inkscape:collect="always"
       xlink:href="#a"
       id="linearGradient18650"
       gradientUnits="userSpaceOnUse"
       x1="-8.0959644"
       y1="336.11804"
       x2="466.33603"
       y2="336.11804" /><linearGradient
       inkscape:collect="always"
       xlink:href="#a"
       id="linearGradient18652"
       gradientUnits="userSpaceOnUse"
       x1="-8.0959644"
       y1="320.11804"
       x2="466.33603"
       y2="320.11804" /><linearGradient
       inkscape:collect="always"
       xlink:href="#a"
       id="linearGradient18654"
       gradientUnits="userSpaceOnUse"
       x1="-8.0959644"
       y1="320.11804"
       x2="466.33603"
       y2="320.11804" /><linearGradient
       inkscape:collect="always"
       xlink:href="#a"
       id="linearGradient18656"
       gradientUnits="userSpaceOnUse"
       x1="-8.0959644"
       y1="408.11804"
       x2="466.33603"
       y2="408.11804" /><linearGradient
       inkscape:collect="always"
       xlink:href="#a"
       id="linearGradient18658"
       gradientUnits="userSpaceOnUse"
       x1="-8.0959644"
       y1="128.11806"
       x2="466.33603"
       y2="128.11806" /><linearGradient
       inkscape:collect="always"
       xlink:href="#a"
       id="linearGradient18660"
       gradientUnits="userSpaceOnUse"
       x1="-8.0959644"
       y1="320.11804"
       x2="466.33603"
       y2="320.11804" /></defs><sodipodi:namedview
     id="namedview4"
     pagecolor="#505050"
     bordercolor="#eeeeee"
     borderopacity="1"
     inkscape:pageshadow="0"
     inkscape:pageopacity="0"
     inkscape:pagecheckerboard="0"
     showgrid="false"
     inkscape:zoom="0.3990809"
     inkscape:cx="533.72637"
     inkscape:cy="146.58682"
     inkscape:window-width="1366"
     inkscape:window-height="708"
     inkscape:window-x="0"
     inkscape:window-y="0"
     inkscape:window-maximized="1"
     inkscape:current-layer="g8" /><g
     id="g8"
     inkscape:groupmode="layer"
     inkscape:label="3301596"
     transform="matrix(1.3333333,0,0,-1.3333333,528.45677,670.69847)"><rect
       style="fill:#fafaff;fill-opacity:1;stroke:#ffffff;stroke-width:0;stroke-linecap:round;stop-color:#000000"
       id="rect1903"
       width="896.78186"
       height="496.71115"
       x="-396.34259"
       y="-500.39401"
       transform="scale(1,-1)"
       inkscape:export-filename="/home/juferoga/repos/ud/modelos-i-final/src/Assets/card-splash.png"
       inkscape:export-xdpi="65.835411"
       inkscape:export-ydpi="65.835411" /><g
       id="g10"><g
         id="g12"
         clip-path="url(#clipPath16)"><g
           id="g18"
           transform="translate(404.6836,349.8062)"
           style="fill:url(#linearGradient8560);fill-opacity:1" /><g
           id="g22"
           style="fill:#33fff7;fill-opacity:0.427232"><g
             id="g24"
             style="fill:#33fff7;fill-opacity:0.427232" /></g></g></g><g
       id="g302"
       transform="translate(-43.464959,-226.04662)"
       style="fill:#353535;fill-opacity:1"
       inkscape:export-filename="/home/juferoga/repos/ud/modelos-i-final/src/Assets/card-splash.png"
       inkscape:export-xdpi="96"
       inkscape:export-ydpi="96"><text
         xml:space="preserve"
         style="font-size:42px;line-height:1.25;font-family:'URW Gothic';-inkscape-font-specification:'URW Gothic';fill:#353535;fill-opacity:1;stroke-width:0.75"
         x="-337.57712"
         y="-316.00882"
         id="text11015"
         transform="scale(1,-1)"><tspan
           sodipodi:role="line"
           style="font-style:normal;font-variant:normal;font-weight:normal;font-stretch:normal;font-size:90px;font-family:Desyrel;-inkscape-font-specification:'Desyrel, Normal';font-variant-ligatures:normal;font-variant-caps:normal;font-variant-numeric:normal;font-variant-east-asian:normal;fill:#353535;fill-opacity:1;stroke-width:0.75"
           x="-337.57712"
           y="-316.00882"
           id="tspan11017">Monopolio</tspan></text></g><g
       id="g13533"
       transform="translate(-91.827855,-281.06512)"
       style="fill:#353535;fill-opacity:1"
       inkscape:export-filename="/home/juferoga/repos/ud/modelos-i-final/src/Assets/card-splash.png"
       inkscape:export-xdpi="96"
       inkscape:export-ydpi="96"><text
         xml:space="preserve"
         style="font-size:30px;line-height:1.25;font-family:'URW Gothic';-inkscape-font-specification:'URW Gothic';fill:#353535;fill-opacity:1;stroke-width:0.75"
         x="-278.55582"
         y="-324.2439"
         id="text13531"
         transform="scale(1,-1)"><tspan
           sodipodi:role="line"
           style="font-style:normal;font-variant:normal;font-weight:normal;font-stretch:normal;font-size:30px;font-family:Desyrel;-inkscape-font-specification:'Desyrel, Normal';font-variant-ligatures:normal;font-variant-caps:normal;font-variant-numeric:normal;font-variant-east-asian:normal;fill:#353535;fill-opacity:1;stroke-width:0.75"
           x="-278.55582"
           y="-324.2439"
           id="tspan13529">by juferoga</tspan></text></g><g
       id="g83"
       transform="matrix(0.33509701,0,0,-0.33509701,309.93838,472.32992)"
       inkscape:export-filename="/home/juferoga/repos/ud/modelos-i-final/src/Assets/card-splash.png"
       inkscape:export-xdpi="96"
       inkscape:export-ydpi="96"><linearGradient
         id="linearGradient1178"><stop
           stop-opacity="1"
           stop-color="#000000"
           offset="0"
           id="stop1172" /><stop
           stop-opacity="1"
           stop-color="#000000"
           offset="0.503"
           id="stop1174" /><stop
           stop-opacity="1"
           stop-color="#000000"
           offset="1"
           id="stop1176" /></linearGradient><linearGradient
         id="linearGradient1180"
         gradientUnits="userSpaceOnUse"
         x1="-8.0959644"
         x2="466.33603"
         xlink:href="#a"
         y1="136.11006"
         y2="136.11006" /><linearGradient
         id="linearGradient1182"
         gradientUnits="userSpaceOnUse"
         x1="-8.0959644"
         x2="466.33603"
         xlink:href="#a"
         y1="344.11005"
         y2="344.11005" /><linearGradient
         id="linearGradient1184"
         gradientUnits="userSpaceOnUse"
         x1="-8.0959644"
         x2="466.33603"
         xlink:href="#a"
         y1="56.118053"
         y2="56.118053" /><linearGradient
         id="linearGradient1186"
         gradientUnits="userSpaceOnUse"
         x1="-8.0959644"
         x2="466.33603"
         xlink:href="#a"
         y1="88.118057"
         y2="88.118057" /><linearGradient
         id="linearGradient1188"
         gradientUnits="userSpaceOnUse"
         x1="-8.0959644"
         x2="466.33603"
         xlink:href="#a"
         y1="72.118057"
         y2="72.118057" /><linearGradient
         id="linearGradient1190"
         gradientUnits="userSpaceOnUse"
         x1="-8.0959644"
         x2="466.33603"
         xlink:href="#a"
         y1="136.11806"
         y2="136.11806" /><linearGradient
         id="linearGradient1192"
         gradientUnits="userSpaceOnUse"
         x1="-8.0959644"
         x2="466.33603"
         xlink:href="#a"
         y1="168.11806"
         y2="168.11806" /><linearGradient
         id="linearGradient1194"
         gradientUnits="userSpaceOnUse"
         x1="-8.0959644"
         x2="466.33603"
         xlink:href="#a"
         y1="152.11806"
         y2="152.11806" /><linearGradient
         id="linearGradient1196"
         gradientUnits="userSpaceOnUse"
         x1="-8.0959644"
         x2="466.33603"
         xlink:href="#a"
         y1="304.11804"
         y2="304.11804" /><linearGradient
         id="linearGradient1198"
         gradientUnits="userSpaceOnUse"
         x1="-8.0959644"
         x2="466.33603"
         xlink:href="#a"
         y1="336.11804"
         y2="336.11804" /><linearGradient
         id="linearGradient1200"
         gradientUnits="userSpaceOnUse"
         x1="-8.0959644"
         x2="466.33603"
         xlink:href="#a"
         y1="320.11804"
         y2="320.11804" /><linearGradient
         id="linearGradient1202"
         gradientUnits="userSpaceOnUse"
         x1="-8.0959644"
         x2="466.33603"
         xlink:href="#a"
         y1="392.11804"
         y2="392.11804" /><linearGradient
         id="linearGradient1204"
         gradientUnits="userSpaceOnUse"
         x1="-8.0959644"
         x2="466.33603"
         xlink:href="#a"
         y1="424.11804"
         y2="424.11804" /><linearGradient
         id="linearGradient1206"
         gradientUnits="userSpaceOnUse"
         x1="-8.0959644"
         x2="466.33603"
         xlink:href="#a"
         y1="408.11804"
         y2="408.11804" /><linearGradient
         id="linearGradient1208"
         gradientUnits="userSpaceOnUse"
         x1="-8.0959644"
         x2="466.33603"
         xlink:href="#a"
         y1="112.11806"
         y2="112.11806" /><linearGradient
         id="linearGradient1210"
         gradientUnits="userSpaceOnUse"
         x1="-8.0959644"
         x2="466.33603"
         xlink:href="#a"
         y1="144.11806"
         y2="144.11806" /><linearGradient
         id="linearGradient1212"
         gradientUnits="userSpaceOnUse"
         x1="-8.0959644"
         x2="466.33603"
         xlink:href="#a"
         y1="128.11806"
         y2="128.11806" /><linearGradient
         id="linearGradient1214"
         gradientUnits="userSpaceOnUse"
         x1="-8.0959644"
         x2="466.33603"
         xlink:href="#a"
         y1="344.11804"
         y2="344.11804" /><path
         d="m 136.09766,272.11719 c 75.10937,0.0781 136.0625,-60.75 136.13671,-135.85938 C 272.3125,61.148438 211.48828,0.195312 136.375,0.117188 h -0.47266 C 60.792969,0.171875 -0.0546875,61.101562 0,136.21484 0.0546875,211.32422 60.984375,272.17187 136.09766,272.11719 Z M 135.90234,48.117188 c 48.60157,0 88,39.398437 88,88.000002 0,48.60156 -39.39843,88 -88,88 -48.597652,0 -87.999996,-39.39844 -87.999996,-88 0.05859,-48.578128 39.425781,-87.941409 87.999996,-88.000002 z m 120,88.000002 C 255.80078,199.13672 207.05078,251.375 144.19141,255.82812 l 0.14453,-16.13281 c 54.13672,-4.24609 95.875,-49.46875 95.78125,-103.77344 -0.0977,-54.304682 -41.9961,-99.374995 -96.14844,-103.429682 l 0.14453,-16.109376 C 207.01562,20.792969 255.81641,73.0625 255.90234,136.11719 Z M 128.11328,16.316406 127.96875,32.519531 C 73.75,36.660156 31.894531,81.910156 31.992188,136.28906 c 0.09766,54.37891 42.109374,99.48047 96.343752,103.42969 l -0.15235,16.14453 C 64.84375,252.03906 15.429688,199.57031 15.410156,136.11719 15.390625,72.664062 64.777344,20.160156 128.11328,16.300781 Z m 0,0"
         fill="url(#b)"
         data-original="url(#b)"
         id="path27"
         style="fill:url(#b)" /><path
         d="m 344.40625,208.11719 h -0.50391 C 268.79297,208.17187 207.94531,269.10156 208,344.21484 c 0.0547,75.10938 60.98437,135.95703 136.09766,135.90235 75.10937,0.0781 136.0625,-60.75 136.13671,-135.85938 0.0781,-75.10937 -60.74609,-136.0625 -135.85937,-136.14062 z m -0.50391,224 c -48.59765,0 -88,-39.39844 -88,-88 0,-48.60157 39.40235,-88 88,-88 48.60157,0 88,39.39843 88,88 -0.0547,48.57812 -39.42187,87.94531 -88,88 z m -120,-88 c 0.0312,-63.2461 49.10157,-115.63282 112.21094,-119.80078 l -0.14453,16.20312 c -54.21875,4.14063 -96.07422,49.39063 -95.97656,103.76953 0.0977,54.37891 42.10937,99.48047 96.34375,103.42969 l -0.15235,16.14453 C 273.07812,459.71094 223.99219,407.35937 223.90234,344.11719 Z m 128.28907,119.71093 0.14453,-16.13281 c 54.13672,-4.24609 95.875,-49.46875 95.78125,-103.77344 -0.0977,-54.30468 -41.9961,-99.375 -96.14844,-103.42968 l 0.14453,-16.10938 c 62.875,4.3711 111.65234,56.64063 111.67188,119.67188 0.0234,63.02734 -48.71875,115.32812 -111.59375,119.74218 z m 0,0"
         fill="url(#c)"
         data-original="url(#c)"
         id="path29"
         style="fill:url(#c)" /><path
         d="m 343.90234,48.117188 h 16 v 16 h -16 z m 0,0"
         fill="url(#d)"
         data-original="url(#d)"
         id="path31"
         style="fill:url(#d)" /><path
         d="m 343.90234,80.117188 h 16 v 16 h -16 z m 0,0"
         fill="url(#e)"
         data-original="url(#e)"
         id="path33"
         style="fill:url(#e)" /><path
         d="m 327.90234,64.117188 h 16 v 16 h -16 z m 0,0"
         fill="url(#f)"
         data-original="url(#f)"
         id="path35"
         style="fill:url(#linearGradient18642)" /><path
         d="m 359.90234,64.117188 h 16 v 16 h -16 z m 0,0"
         fill="url(#f)"
         data-original="url(#f)"
         id="path37"
         style="fill:url(#f)" /><path
         d="m 319.90234,128.11719 h 16 v 16 h -16 z m 0,0"
         fill="url(#g)"
         data-original="url(#g)"
         id="path39"
         style="fill:url(#linearGradient18644)" /><path
         d="m 319.90234,160.11719 h 16 v 16 h -16 z m 0,0"
         fill="url(#h)"
         data-original="url(#h)"
         id="path41"
         style="fill:url(#h)" /><path
         d="m 303.90234,144.11719 h 16 v 16 h -16 z m 0,0"
         fill="url(#i)"
         data-original="url(#i)"
         id="path43"
         style="fill:url(#linearGradient18646)" /><path
         d="m 335.90234,144.11719 h 16 v 16 h -16 z m 0,0"
         fill="url(#i)"
         data-original="url(#i)"
         id="path45"
         style="fill:url(#i)" /><path
         d="m 151.90234,296.11719 h 16 v 16 h -16 z m 0,0"
         fill="url(#j)"
         data-original="url(#j)"
         id="path47"
         style="fill:url(#linearGradient18648)" /><path
         d="m 151.90234,328.11719 h 16 v 16 h -16 z m 0,0"
         fill="url(#k)"
         data-original="url(#k)"
         id="path49"
         style="fill:url(#linearGradient18650)" /><path
         d="m 135.90234,312.11719 h 16 v 16 h -16 z m 0,0"
         fill="url(#l)"
         data-original="url(#l)"
         id="path51"
         style="fill:url(#linearGradient18652)" /><path
         d="m 167.90234,312.11719 h 16 v 16 h -16 z m 0,0"
         fill="url(#l)"
         data-original="url(#l)"
         id="path53"
         style="fill:url(#linearGradient18654)" /><path
         d="m 111.90234,384.11719 h 16 v 16 h -16 z m 0,0"
         fill="url(#m)"
         data-original="url(#m)"
         id="path55"
         style="fill:url(#m)" /><path
         d="m 111.90234,416.11719 h 16 v 16 h -16 z m 0,0"
         fill="url(#n)"
         data-original="url(#n)"
         id="path57"
         style="fill:url(#n)" /><path
         d="m 95.902344,400.11719 h 15.999996 v 16 H 95.902344 Z m 0,0"
         fill="url(#o)"
         data-original="url(#o)"
         id="path59"
         style="fill:url(#linearGradient18656)" /><path
         d="m 127.90234,400.11719 h 16 v 16 h -16 z m 0,0"
         fill="url(#o)"
         data-original="url(#o)"
         id="path61"
         style="fill:url(#o)" /><path
         d="m 431.90234,104.11719 h 16 v 16 h -16 z m 0,0"
         fill="url(#p)"
         data-original="url(#p)"
         id="path63"
         style="fill:url(#p)" /><path
         d="m 431.90234,136.11719 h 16 v 16 h -16 z m 0,0"
         fill="url(#q)"
         data-original="url(#q)"
         id="path65"
         style="fill:url(#q)" /><path
         d="m 415.90234,120.11719 h 16 v 16 h -16 z m 0,0"
         fill="url(#r)"
         data-original="url(#r)"
         id="path67"
         style="fill:url(#linearGradient18658)" /><path
         d="m 447.90234,120.11719 h 16 v 16 h -16 z m 0,0"
         fill="url(#r)"
         data-original="url(#r)"
         id="path69"
         style="fill:url(#r)" /><path
         d="m 31.902344,296.11719 h 16 v 16 h -16 z m 0,0"
         fill="url(#j)"
         data-original="url(#j)"
         id="path71"
         style="fill:url(#j)" /><path
         d="m 31.902344,328.11719 h 16 v 16 h -16 z m 0,0"
         fill="url(#k)"
         data-original="url(#k)"
         id="path73"
         style="fill:url(#k)" /><path
         d="m 15.902344,312.11719 h 16 v 16 h -16 z m 0,0"
         fill="url(#l)"
         data-original="url(#l)"
         id="path75"
         style="fill:url(#linearGradient18660)" /><path
         d="m 47.902344,312.11719 h 16 v 16 h -16 z m 0,0"
         fill="url(#l)"
         data-original="url(#l)"
         id="path77"
         style="fill:url(#l)" /><path
         d="m 127.90234,192.11719 h 16 v -16 h 8 c 4.42188,0 8,-3.58203 8,-8 v -32 c 0,-4.41797 -3.57812,-8 -8,-8 h -24 v -16 h 32 V 96.117188 h -16 v -16 h -16 v 16 h -8 c -4.41796,0 -8,3.582031 -8,8.000002 v 32 c 0,4.41797 3.58204,8 8,8 h 24 v 16 h -32 v 16 h 16 z m 0,0"
         fill="url(#g)"
         data-original="url(#g)"
         id="path79"
         style="fill:url(#g)" /><path
         d="m 351.90234,288.11719 h -16 v 16 h -8 c -4.41797,0 -8,3.58203 -8,8 v 32 c 0,4.41797 3.58203,8 8,8 h 24 v 16 h -32 v 16 h 16 v 16 h 16 v -16 h 8 c 4.42188,0 8,-3.58203 8,-8 v -32 c 0,-4.41797 -3.57812,-8 -8,-8 h -24 v -16 h 32 v -16 h -16 z m 0,0"
         fill="url(#s)"
         data-original="url(#s)"
         id="path81"
         style="fill:url(#s)" /></g><rect
       style="fill:#353535;fill-opacity:1;stroke:#ffffff;stroke-width:0;stroke-linecap:round;stop-color:#000000"
       id="rect20083"
       width="60.708755"
       height="136.63834"
       x="-263.32465"
       y="-502.0751"
       transform="scale(1,-1)"
       inkscape:export-filename="/home/juferoga/repos/ud/modelos-i-final/src/Assets/card-splash.png"
       inkscape:export-xdpi="96"
       inkscape:export-ydpi="96" /><rect
       style="fill:#353535;fill-opacity:1;stroke:#ffffff;stroke-width:0;stroke-linecap:round;stop-color:#000000"
       id="rect20165"
       width="59.952076"
       height="221.87506"
       x="-361.22696"
       y="-503.02386"
       transform="scale(1,-1)"
       inkscape:export-filename="/home/juferoga/repos/ud/modelos-i-final/src/Assets/card-splash.png"
       inkscape:export-xdpi="96"
       inkscape:export-ydpi="96" /><rect
       style="fill:#353535;fill-opacity:1;stroke:#ffffff;stroke-width:0;stroke-linecap:round;stop-color:#000000"
       id="rect22667"
       width="60.708755"
       height="136.63834"
       x="-356.6322"
       y="3.3204212"
       transform="scale(-1,1)"
       inkscape:export-filename="/home/juferoga/repos/ud/modelos-i-final/src/Assets/card-splash.png"
       inkscape:export-xdpi="96"
       inkscape:export-ydpi="96" /><rect
       style="fill:#353535;fill-opacity:1;stroke:#ffffff;stroke-width:0;stroke-linecap:round;stop-color:#000000"
       id="rect22669"
       width="59.952076"
       height="221.87506"
       x="-454.53452"
       y="2.3716602"
       transform="scale(-1,1)"
       inkscape:export-filename="/home/juferoga/repos/ud/modelos-i-final/src/Assets/card-splash.png"
       inkscape:export-xdpi="96"
       inkscape:export-ydpi="96" /></g></svg>
